<?xml version="1.0" standalone="no"?><!DOCTYPE svg PUBLIC "-//W3C//DTD SVG 1.1//EN" "http://www.w3.org/Graphics/SVG/1.1/DTD/svg11.dtd"><svg t="1770619916578" class="icon" viewBox="0 0 1024 1024" version="1.1" xmlns="http://www.w3.org/2000/svg" p-id="1579" xmlns:xlink="http://www.w3.org/1999/xlink" width="200" height="200"><path d="M362.403292 95.115814C163.141681 95.115814 0 230.56555 0 403.339212c0 99.329806 54.179894 181.201646 145.081717 244.411523l-36.119929 108.961787 126.419753-63.811875c45.149912 9.029982 81.87184 18.059965 127.021752 18.059965 11.437978 0 22.875955-0.601999 33.711934-1.203998-7.223986-24.079953-11.437978-49.363904-11.437978-75.851852 0-158.325691 136.051734-286.55144 308.223398-286.55144 12.039976 0 23.477954 0.601999 34.915932 2.407995C696.51264 203.475603 540.594944 95.115814 362.403292 95.115814zM240.79953 339.527337c-24.681952 0-44.547913-19.865961-44.547913-44.547913 0-24.681952 19.865961-44.547913 44.547913-44.547913s44.547913 19.865961 44.547913 44.547913C285.347443 319.661376 265.481481 339.527337 240.79953 339.527337zM495.445032 339.527337c-24.681952 0-44.547913-19.865961-44.547913-44.547913 0-24.681952 19.865961-44.547913 44.547913-44.547913s44.547913 19.865961 44.547913 44.547913C539.992945 319.661376 520.126984 339.527337 495.445032 339.527337zM1024 629.69077c0-145.081717-145.081717-263.073486-307.621399-263.073486-172.171664 0-308.223398 117.99177-308.223398 263.073486 0 145.081717 136.051734 263.073486 308.223398 263.073486 36.119929 0 72.239859-9.029982 108.961787-18.059965l99.329806 54.179894-27.089947-90.299824C969.820106 783.802469 1024 711.56261 1024 629.69077zM620.660788 583.938859c-19.865961 0-36.119929-16.253968-36.119929-36.119929s16.253968-36.119929 36.119929-36.119929 36.119929 16.253968 36.119929 36.119929S640.526749 583.938859 620.660788 583.938859zM817.514403 583.938859c-19.865961 0-36.119929-16.253968-36.119929-36.119929s16.253968-36.119929 36.119929-36.119929 36.119929 16.253968 36.119929 36.119929S837.982363 583.938859 817.514403 583.938859z" fill="#272636" p-id="1580"></path></svg>